<svg preserveAspectRatio="none" overflow="visible" style="display: block;" width="19.4038" height="18" viewBox="0 0 19.4038 18" fill="none" xmlns="http://www.w3.org/2000/svg">
<path id="Vector 16" d="M18.5 12.5C18.1 15.3 14.3333 17 12.5 17.5C11.8333 17.6667 9.6 18 6 18C2.4 18 0.5 15 0 13.5L0.5 8.5C1.66667 7.66667 4 5.9 4 5.5V5.49999C4 5 4 4.99999 3.00001 3.5C2.00001 2 4.50001 1 5.50001 1.5C6.30001 1.9 6.16668 3.66667 6.00001 4.5L11 2.5L11.5 1.5L13 0L14 0.5L13 3C13.8333 3.16667 16 3.9 18 5.5C20.5 7.5 19 9 18.5 12.5Z" fill="#FFC320"/>
</svg>
