<svg preserveAspectRatio="none" overflow="visible" style="display: block;" width="54" height="54" viewBox="0 0 54 54" fill="none" xmlns="http://www.w3.org/2000/svg">
<g id="&#240;&#159;&#140;&#167;&#239;&#184;&#143; &#235;&#185;&#132;&#234;&#181;&#172;&#235;&#166;&#132;">
<path id="Vector" d="M22.4235 44.9415C22.6746 43.9816 24.6848 41.5867 25.6932 40.4284C25.9295 40.1557 26.3736 40.2718 26.4465 40.6255C26.7584 42.1281 27.3402 45.2007 27.0891 46.1619C26.7516 47.4498 25.4354 48.222 24.1461 47.8845C22.8582 47.547 22.086 46.2307 22.4235 44.9415Z" fill="#88C5FF"/>
<path id="Vector_2" d="M33.2707 44.9415C33.5218 43.9816 35.532 41.5867 36.5404 40.4284C36.7767 40.1557 37.2208 40.2718 37.2937 40.6255C37.6056 42.1281 38.1874 45.2007 37.9363 46.1619C37.5988 47.4498 36.2826 48.222 34.9933 47.8845C33.7054 47.547 32.9332 46.2307 33.2707 44.9415Z" fill="#88C5FF"/>
<path id="Vector_3" d="M11.5763 44.9415C11.8274 43.9816 13.8375 41.5867 14.8459 40.4284C15.0822 40.1557 15.5264 40.2718 15.5993 40.6255C15.9111 42.1281 16.493 45.2007 16.2419 46.1619C15.9044 47.4498 14.5881 48.222 13.2989 47.8845C12.011 47.547 11.2388 46.2307 11.5763 44.9415Z" fill="#88C5FF"/>
<g id="Group">
<path id="Vector_4" d="M41.0805 36.8307H12.6306V22.0914L40.7025 23.9855L41.0805 36.8307Z" fill="#E5E8EB"/>
<path id="Vector_5" d="M30.6896 27.9599C37.1814 27.9599 42.444 22.6972 42.444 16.2054C42.444 9.7136 37.1814 4.45095 30.6896 4.45095C24.1977 4.45095 18.9351 9.7136 18.9351 16.2054C18.9351 22.6972 24.1977 27.9599 30.6896 27.9599Z" fill="#E5E8EB"/>
<path id="Vector_6" d="M40.6566 36.8307C46.162 36.8307 50.625 32.3677 50.625 26.8623C50.625 21.3569 46.162 16.8939 40.6566 16.8939C35.1512 16.8939 30.6882 21.3569 30.6882 26.8623C30.6882 32.3677 35.1512 36.8307 40.6566 36.8307Z" fill="#E5E8EB"/>
<path id="Vector_7" d="M12.6306 36.8307C17.7423 36.8307 21.8862 32.6868 21.8862 27.5751C21.8862 22.4634 17.7423 18.3195 12.6306 18.3195C7.51887 18.3195 3.375 22.4634 3.375 27.5751C3.375 32.6868 7.51887 36.8307 12.6306 36.8307Z" fill="#E5E8EB"/>
<path id="Vector_8" d="M18.9351 25.4853C23.1193 25.4853 26.5113 22.0933 26.5113 17.9091C26.5113 13.7249 23.1193 10.3329 18.9351 10.3329C14.7509 10.3329 11.3589 13.7249 11.3589 17.9091C11.3589 22.0933 14.7509 25.4853 18.9351 25.4853Z" fill="#E5E8EB"/>
</g>
</g>
</svg>
